<mxfile host="app.diagrams.net" modified="2024-05-05T09:40:02.902Z" agent="Mozilla/5.0 (Macintosh; Intel Mac OS X 10_15_7) AppleWebKit/537.36 (KHTML, like Gecko) Chrome/124.0.0.0 Safari/537.36" version="24.2.5" etag="63igjBE-84AIn6fXpxle" type="github">
  <diagram name="Seite-1" id="vc8jA2osZnK_nRqmXQHf">
    <mxGraphModel>
      <root>
        <mxCell id="0" />
        <mxCell id="1" parent="0" />
      </root>
    </mxGraphModel>
  </diagram>
</mxfile>
